PathFileType	4	(X/Y/Z)	Patient4_TMGait_0pt3_02_right_28.trc.trc
DataRate	CameraRate	NumFrames	NumMarkers	Units	OrigDataRate	OrigDataStartFrame	OrigNumFrames
53.030303030303	53.030303030303	4	33	mm	53.030303030303	106	       141
Frame#	Time	Sacral			L.Shoulder			Chest			R.Shoulder			Neck			R.ASIS			L.ASIS			R.Thigh.Superior			R.Thigh.Lateral			R.Thigh.Inferior			R.Patella			L.Thigh.Superior			L.Thigh.Lateral			L.Thigh.Inferior			L.Patella			L.Shank.Superior			L.Shank.Lateral			L.Shank.Inferior			R.Shank.Superior			R.Shank.Lateral			R.Shank.Inferior			R.Heel			R.Midfoot.Superior			R.Midfoot.Lateral			R.Toe			L.Heel			L.Midfoot.Lateral			L.Midfoot.Superior			L.Toe			L.Elbow			L.Wrist			R.Elbow			R.Wrist			
		X1	Y1	Z1	X2	Y2	Z2	X3	Y3	Z3	X4	Y4	Z4	X5	Y5	Z5	X6	Y6	Z6	X7	Y7	Z7	X8	Y8	Z8	X9	Y9	Z9	X10	Y10	Z10	X11	Y11	Z11	X12	Y12	Z12	X13	Y13	Z13	X14	Y14	Z14	X15	Y15	Z15	X16	Y16	Z16	X17	Y17	Z17	X18	Y18	Z18	X19	Y19	Z19	X20	Y20	Z20	X21	Y21	Z21	X22	Y22	Z22	X23	Y23	Z23	X24	Y24	Z24	X25	Y25	Z25	X26	Y26	Z26	X27	Y27	Z27	X28	Y28	Z28	X29	Y29	Z29	X30	Y30	Z30	X31	Y31	Z31	X32	Y32	Z32	X33	Y33	Z33	

106	55.880000000000	759.033523166625	991.216458510131	408.201487494146	957.870048330792	1418.483198833744	228.275742648310	1051.531328818471	1346.218893220173	393.155780852745	964.430830269490	1419.309397025351	564.960863454274	932.172696235807	1480.793978040838	386.385821097257	988.797999491734	929.151327843265	528.088257824248	978.686703149715	945.419343227282	254.449893884839	1064.859382928449	751.297620394862	497.140478152719	1021.016576609607	634.498521882618	572.965324871785	1103.328117851948	588.245825621097	488.510686349710	1115.854395085459	475.316460624864	515.550923528955	1040.300821002199	740.068324281228	297.021862238776	965.357627861643	612.870692081945	246.532992471979	1054.580329111263	546.254870270866	318.202157453852	1059.436861133134	471.389016350009	330.996295619604	1018.338174186589	397.127127887694	328.644251941239	914.960044933209	295.304249340384	277.455278340919	937.850526066684	182.496514523679	355.967005252388	1034.548475273909	406.552154880481	530.773171867041	910.597919299058	378.521511185315	593.695886089671	891.582015130463	266.590469949409	553.202157415256	685.933686823904	208.027680384353	528.862483770259	855.037428146108	153.693160763783	577.258788424283	744.475345174611	155.614482830774	608.011015847251	919.202646402113	43.778604427827	612.540749288951	786.061631391217	40.154659859909	394.548986281225	863.369223221857	36.503411839910	317.351920337861	947.149741347864	95.330227081983	348.450774115337	1075.436278342368	39.662163019926	323.319502190374	1023.651253850853	1079.500318984816	93.515751574227	1199.694967893180	886.596081391919	100.966848755051	912.958060403205	1068.943584697990	677.045300500199	974.011384835212	815.889915216941	691.628750498664	
107	55.898857142857	757.241917626821	990.933961153647	405.613627759573	958.689386951939	1419.051047522385	228.813341013857	1049.736935834528	1346.340205536891	394.917246228677	959.829397149155	1418.796715982103	565.578629252272	930.726861188781	1480.819365974302	386.903612925925	986.082034982670	929.735532720104	528.002372870582	978.480803349802	945.403792908525	254.128326914553	1064.871669756099	754.437231002443	496.680043931374	1023.762955131025	637.213405125416	572.951845125727	1106.663830698380	592.403595191942	488.202713963158	1122.232097319148	480.276334403515	515.507415975202	1038.571106933269	739.132572865901	296.828898728324	962.967678660758	612.318918196965	246.159694664790	1051.274908264425	545.253593994798	318.431563490154	1055.614128416978	470.523419179367	331.467794772897	1014.135631753639	396.363375930064	328.926298168806	910.523219495182	294.911580167287	277.440080334466	932.590284270709	182.068116899747	356.106720229694	1043.174257983889	409.437826090643	531.154733241694	920.422082210922	376.993722075165	593.824213283118	905.872079061136	264.388807652123	553.716460759709	702.964233808079	197.055210414368	528.903616460291	873.957973934927	151.026840991781	578.382709035226	763.502659827082	148.090364852154	608.747776073924	942.695687660730	44.617187983476	614.708999139242	780.321363869352	40.056561089138	394.526048661073	857.664862777047	36.453498828452	317.293730957695	941.423950120127	95.233535680818	348.496648890091	1069.746138111104	39.653229816119	323.303495170958	1032.499485210996	1082.984495307789	92.321804720279	1219.367354865263	900.296377606352	101.710830728295	893.759930998828	1070.848187618331	675.504526180729	937.980602903150	814.361952349308	693.114707553391	
108	55.917714285714	755.497561975359	991.262404654518	403.132338043586	959.764319051976	1420.061189370903	229.640437445877	1048.025320578061	1346.925237681354	397.014648599670	955.223006576610	1418.930383332116	566.347278337822	929.388815724437	1481.317694119204	387.610889320258	983.185056877306	930.709738560151	528.293869087217	978.384233857832	945.865713981183	254.194498463318	1064.203153735851	757.710688899529	496.752193996859	1025.336574704638	640.109143595262	573.314965455214	1108.874690385788	596.630212637060	488.498544549594	1127.371130912269	485.629472089316	516.008881569339	1036.431908278388	738.412259456839	296.883453363337	959.864622438987	612.190894603764	245.877331869807	1047.035850251085	544.475483060552	318.702098744756	1050.723031003638	469.984474410034	331.943081954497	1009.056756803526	395.989946211846	329.152740412855	905.462960534167	294.681924337151	277.368532822277	927.024079787974	181.841230121288	356.191303037673	1051.132217281549	412.544666950324	531.971675787647	930.132051263822	374.745111532089	594.441741663271	920.943095824857	261.601643775836	554.589575222101	721.757185842966	184.156605519282	529.380863380054	894.583377881309	147.564989133569	579.659480159754	784.539774063324	138.958765103411	609.747262038637	968.500911928027	45.411678240993	616.713907105385	774.572727803624	39.959416046703	394.488009496643	851.947510090327	36.398211901725	317.228817164671	935.681002284194	95.162066673841	348.503361554149	1064.044409200868	39.659781465191	323.294253669006	1041.001704212980	1087.128269312311	91.338815327778	1237.992013409266	915.160648618613	102.860495816462	874.796062253175	1074.093741018447	673.976862152377	903.641736050228	815.502355000129	693.877973311686	
109	55.936571428571	753.820498417897	992.195060875146	400.779055574174	961.087140202539	1421.498740228513	230.753250463190	1046.404016916745	1347.970538644096	399.429499758150	950.649330363068	1419.714340114311	567.253567471300	928.160563542454	1482.279279520609	388.499523315497	980.129009220013	932.059674012317	528.950771516352	978.401219972032	946.798664706117	254.647697386774	1062.865625966311	761.053960457161	497.334682554432	1025.720199954498	643.092066506118	574.023288348896	1109.944788172994	600.815544549661	489.378697576336	1131.195846252417	491.248015754821	517.018008971676	1033.877608451455	737.905648264759	297.195667960357	956.053656119965	612.493332513664	245.683596411067	1041.863523419294	543.927497353714	319.008257927948	1044.761858291968	469.774389585185	332.403092077005	1003.106912146026	396.013671287817	329.307074918345	899.777684545335	294.623362924914	277.231405256873	921.154243941786	181.822527448217	356.215178493681	1058.316961671686	415.836841788576	533.166283626601	939.683917071162	371.916991223518	595.505866533329	936.608531483947	258.472950030340	555.759333672709	742.196445522936	169.915978029649	530.224301693724	916.600329319388	143.636343859031	580.985918052684	807.369905292934	128.738683912549	610.922602884439	996.106328730478	46.412645592030	618.457095519349	768.818183028031	39.868807140419	394.430750802969	846.216762518043	36.338824947566	317.157868978699	929.922545612125	95.118765236846	348.468921471961	1058.330386837273	39.681967168028	323.291017992206	1049.195845976640	1091.889058452066	90.565577738256	1255.487591734362	931.016992538057	104.387587253985	856.257272400052	1078.615379256591	672.440926569555	871.387427581404	818.950438248241	693.956578548715	
